<svg id="Layer_1" data-name="Layer 1" xmlns="http://www.w3.org/2000/svg" viewBox="0 0 530.53 632.05"><defs><style>.cls-1{fill:#2a2726;}.cls-2{fill:#322e2e;}.cls-3{fill:#302c2c;}.cls-4{fill:#332f2f;}.cls-5{fill:#f5be32;}.cls-6{fill:#47d9e4;}.cls-7{fill:#393535;}.cls-8{fill:#353232;}.cls-9{fill:#2c2829;}.cls-10{fill:#403d3d;}.cls-11{fill:#49e5f0;}.cls-12{fill:#5b5858;}.cls-13{fill:#fbc02e;}.cls-14{fill:#fefbf6;}.cls-15{fill:#46e5f1;}.cls-16{fill:#f7f5f2;}.cls-17{fill:#58e7f2;}.cls-18{fill:#fbfbfb;}.cls-19{fill:#efefef;}.cls-20{fill:#f1f1f1;}.cls-21{fill:#fefefe;}.cls-22{fill:#eaeaea;}.cls-23{fill:#e4e3e3;}.cls-24{fill:#dad9d9;}.cls-25{fill:#f3f3f3;}.cls-26{fill:#f5f5f5;}.cls-27{fill:#fcfcfc;}.cls-28{fill:#fefdfb;}.cls-29{fill:#fbc131;}</style></defs><title>Tututu</title><path class="cls-1" d="M178.75,558.72l5.3,9.89c0,7-3.54,11.67-9.84,14.9l2.45,4.3.42,3.13c-.78,10.67-3.94,13.68-16.39,15.68-2,16-8.47,21.69-24.85,21.66-8,0-15.91-.12-23.87-.18-8.81-2.56-14.14-8.22-15.94-17.34a6.24,6.24,0,0,0-3.29-4c-12.82-4.58-15.7-10.66-10.61-23.19-12.26-7.64-13-17.37-2.09-26.36,1.08-.89,1.65-3,1.61-4.58-.58-24.21-8.73-45.52-22.87-65.27-21.59-30.14-24-62.59-5.22-94.73,17.63-30.22,45.15-45.62,80.33-43.43,34.87,2.16,59.52,20.81,74.68,52.12,1.16,2.39,2.09,4.89,3.13,7.34.37,1.09.74,2.17,1.1,3.25l0-.08c1,6.72,2.51,13.41,2.81,20.16.92,20.45-4.88,39-16.89,55.62-14.08,19.46-22.5,40.92-23,65.18C175.59,555.42,175.74,557.75,178.75,558.72ZM91,562c-1.14,0-2.29-.06-3.43-.16-3.84-.36-7,.81-8.27,4.63-1.23,3.61-1.07,7.13,2.46,9.65,2,.58,4,1.67,6,1.68q40.43.17,80.85.06c8.14,0,11.35-5.84,7.39-13.13-2-1-3.93-2.74-5.9-2.75C143.76,561.88,117.4,562,91,562Zm-2.67,24.19c-3.93,4.85-3.63,9,.93,12.62A30.72,30.72,0,0,0,95,600q33.46.1,66.94,0c7.85,0,10.17-3.29,8.08-11.19-1.1-4-4.31-4-7.56-4-22.65,0-45.3,0-68,.06C92.44,584.83,90.4,585.74,88.36,586.23Zm66.55-226.38c-7.69-1.64-15.33-4.44-23.06-4.73-43.41-1.61-79.43,30-83.81,73.21-1.06,10.4-.85,20.89,3.56,30.78a62.51,62.51,0,0,0,11.9,24.46c9.66,12.24,16.2,26,20.5,40.93,1.27,9.29,2.63,18.58,3.73,27.9.26,2.29.6,3.54,3.16,2.61h78.25c.39-4.84.57-9.32,1.15-13.75,2.85-21.6,11.46-40.79,24.1-58.44,14.39-20.1,18.73-42.57,12.67-66.46C199.94,388.34,183,368.82,154.91,359.85Zm-1.19,246.76c-16.41,0-32.51,0-48.61.12-.92,0-2.74,1.93-2.57,2.48,1,3.26,1.78,7.09,4,9.34,2.07,2.08,5.85,3.23,9,3.39,8.46.45,17,.29,25.45.12C149.75,621.88,154.46,616.37,153.72,606.61Z"/><path class="cls-2" d="M200.7,279.54c.49,2.94-.55,4.54-3.72,4q-13.69-2.11-27.39-4.3l2.16-4,.49.11,1,.49-.26-1.34,0-1.83,2.73,0c1.76,2.09,3.51,4.19,5.26,6.28l.67-.78-3.69-10.54,2.26-.12c3.91,3.85,3.16,12.22,12.42,12.24-2.71-5.35-5.12-10-7.36-14.67a13,13,0,0,1-.56-3.65c1,.66,2.38,1.09,2.88,2,2.44,4.51,4.61,9.16,7,13.72a26.66,26.66,0,0,0,2.25,3.19l1.35-.92q-4.26-11.35-8.51-22.71l1.26-1.29,6.3,12,.55-.18c-.71-5.29-1.41-10.58-2.33-17.37l-5,4.82-1.86.09-7.25-1.07c1.49,3.38,2.47,5.63,3.46,7.88-1.72-1.59-3.38-3.24-5.17-4.75-1.17-1-2.51-1.79-3.77-2.68l-7.19-.67c1.89,5.69,3.59,10.8,5.28,15.9l-1.83,2.25c-2-5.44-3.87-10.94-6.08-16.29-.59-1.43-2.25-2.41-3.41-3.6l-1.14,1.08q4.81,10.88,9.61,21.76l-2.11.1c-3-6.6-6.45-13.07-9-19.86-1.38-3.72-3.29-5.09-7.12-5,3.57,6.37,7,12.42,10.35,18.49,1.28,2.31,2.47,4.66,3.7,7-.07.87-.14,1.74-.2,2.61-6.13-1.33-10.15-4.39-12.78-10.68-2.5-6-7.18-11.11-11.12-16.44-6.83-9.25-13.22-18.75-15.39-30.28-.73-3.83-.29-7.89-.39-11.84l3.21-1c.14,2.49.22,5,.42,7.47,1.16,14.76,8.67,24.93,22.57,29.85a103,103,0,0,0,18.83,4.54c9.16,1.39,18.26,1.12,26.49-4.19.7-.45,1.95-.06,3.72-.06-4.43,6-4.48,11.61-1.4,17,2.1,3.69,4.34,7.74,7.57,10.28,16.78,13.2,35.59,20.35,57.35,17.56q-1,2-2,4.08l-4.92,1.46-1.33.09-5.7-1.19c1.21,3.22,2.11,5.65,3,8.07l-2.18,1.06c-1.17-2.89-2.33-5.78-3.64-9.06l-4.23-.91,4.72,14.94-2.27.15c-1.73-4.12-3.31-8.32-5.26-12.33-.89-1.83-2.53-3.3-3.82-4.93l-2,1.21q4,10.39,7.93,20.78l-2.18.08c-2.36-6.27-5.18-12.42-6.87-18.87-.86-3.29-1.85-4.86-5.72-4.91l9.25,28.82h-2.32l-3.06-7.37a10.49,10.49,0,0,0-.57,4.24c0,.21-1.34.35-2.06.52-3.55-9.48-7-19-10.74-28.42-.79-2-2.47-3.67-3.75-5.49l-1.74,1c3.12,8.9,6.47,17.73,9.24,26.74,1.05,3.44,1.49,6.71,5.85,7.13l6.35,3.09-.05,3.36c-2.61-1-5.3-1.89-7.81-3.12-7.34-3.57-13.79-7.14-15.9-16.72-2-8.88-7-17.08-10.66-25.58C201.19,278.62,201,279.08,200.7,279.54Zm29,21.28c-.69-2.87-1.77-5.72-2-8.63-.22-3.34-1.27-5.22-5.27-5,2.07,5.1,4.08,10.08,6.1,15.05l1.6,1.68C230,302.86,229.85,301.84,229.69,300.82Zm-84.44-53.77,10.47,16.18C155.1,256.48,149.35,247.72,145.25,247.05ZM213,290.7c.41-9.54-.07-10.7-4.36-11.42C210.11,283.18,211.54,286.94,213,290.7Zm-38.52-13.52c0,.11,0,.26.08.31a.87.87,0,0,0,.37.08l-.1-.53ZM198,269a1.4,1.4,0,0,0-.42.15s.05.24.09.37a1.46,1.46,0,0,0,.43-.15S198,269.17,198,269Z"/><path class="cls-3" d="M489.78,67.73c-.54,5.29-1.16,10.56-1.59,15.86-.2,2.45,0,4.93,0,7.49,4.32,1.1,8.21,1.82,11.93,3.07,21.46,7.22,32.09,24.79,30.15,47.54a225.2,225.2,0,0,0,.11,34.26c.82,12.21-1.08,23.09-9.89,32.19a6.53,6.53,0,0,0-1.28,4.9c1.62,10.65,0,20.66-3.88,30.75-2.39,6.24-2.71,13.28-3.95,20l-4.16,2v-9l-1.79-.3a44.48,44.48,0,0,0-2.14,6c-.77,3.72-1.21,7.51-1.8,11.27l-3,1,2.78-12.68c-4.94,2-6.94,5-6.49,9.85.23,2.57-.7,5.24-1.11,7.87l-2.4-1c.47-3.56.93-7.11,1.41-10.75l-7.52,2.88L482.83,268c20.19-7.58,34.22-27.5,33.88-48.3-.17-10.6-4.12-19.71-12.93-25.68-4.19-2.85-4.31-4.82-1.76-8.46,6.1-8.71,12.19-17.43,18-26.34a38.63,38.63,0,0,0,6.58-22.15c-.56-22.78-14.81-38.42-37.5-41.14-3.47-.42-5-2-4.83-4.89.4-7.11,1.21-14.19,1.86-21.29Zm29.48,135.74h1.17V167.22c-1.56,1.69-2.68,3.65-2.62,5.56C518.14,183,518.75,193.24,519.26,203.47Zm-7.42-24.71c-3.06,4-2.59,12.65,1,18C512.51,190.54,512.2,185,511.84,178.76Z"/><path class="cls-2" d="M435.8,336.67c-19.69,4.89-38.44,1.33-56.68-6.41-1.77-.75-3.18-2.35-5.15-3.86-8.51,12.13-20.77,17.78-35.17,19.42l-1.09-3.18q-1-6.4-1.93-12.82l2.35-.12c.81,3.35,1.5,6.73,2.5,10,.28.91,1.48,1.52,3.08,3.06-1-7.06-1.73-12.43-2.48-17.81l2.34-1.15c1.06,5.58,2.13,11.16,3.24,17l3.9-1.31c-1-7.42-1.92-14.56-2.86-21.7h1.83c1.47,6.7,2.94,13.4,4.5,20.49l3.23-1.93c-1.29-8.26-2.49-15.9-3.68-23.54l1.2,0c1.77,7.15,3.54,14.3,5.65,22.78,1.11-2.19,2.21-3.33,2.18-4.44-.14-6.78-.5-13.56-.94-20.33,0-.56-1.22-1-1.87-1.55l1.88-5.36c4.8-4.08,9.52-8.28,14.49-12.16a4.91,4.91,0,0,1,4.3-.32c8.46,4.09,16.8,8.42,25.18,12.68l3,4.67-5.93-.78v25.58l5.19.32c.43-8.24.85-16.16,1.26-24.08l2.38,0V334.6H419V318.81l3.25,1v15.05l3.73-.54c.52-3.14.95-5.72,1.37-8.29l2.34,1.76c.1,1.92.2,3.83.31,5.92l4.76-.57C435.13,334.31,435.46,335.49,435.8,336.67Zm-57.87-40.61c0,8.44.62,16.32-.21,24.05-.58,5.35,1.48,7,6.12,7.89,0-8.18-.2-16.15.08-24.1C384.06,300.09,383.13,297.53,377.93,296.06Zm15.69,8.5v27.19l5.23.88c.52-8.85,1-17.22,1.49-25.61Zm-24.22-1.89c-2.16,2.26-5.36,4.08-5.35,5.87,0,6.88,1.12,13.76,1.83,20.84C371.29,325.08,373,312.93,369.4,302.67Zm18.53-1.61c-.24.34-.49.68-.74,1,0,8.42-.08,16.83.1,25.24,0,1.24,1.3,2.45,2,3.67l1.76-.63c0-8.25.16-16.51-.14-24.75C390.85,304.05,389,302.57,387.93,301.06Z"/><path class="cls-3" d="M235.78,323.57c0-1.12,0-2.24.05-3.36l.48-1.41h2.32l4.67,3.54,1.28,0-.57-.73-2-7.82,2.18-.08c3,3,1.08,8.89,6.29,11.35-1.16-5.88-2.17-11-3.18-16.08l2.27-.15c1.59,4.88,3,9.85,4.91,14.58.64,1.56,2.79,2.51,4.26,3.74.36-.39.73-.77,1.09-1.15l-7.11-22.14,2.18-1.06c2,5.39,4.25,10.7,6,16.17,3.06,9.55,2.94,9.59,12.83,7.48l-2.52-12.58h1.53c1.44,4,2.87,8,4.42,12.29,1.19-.81,2.74-1.57,2.65-1.86-3-10.53-6.26-21-9.37-31.24l-6.61,1.32q1-2,2-4.08c8.66-4.3,8.48-4.12,15.6,2.45,5.19,4.79,10.9,9,16.39,13.46l4,5.7h-3.84c2.71,7.88,5,15.3,7.88,22.48.83,2.06,3.42,3.41,6,5.84-2.62-9.57-4.78-17.48-6.94-25.39h1.68c2.77,7.36,5.27,14.84,8.44,22,1.05,2.38,3.82,4,5.8,5.95l-1,2.76C305.92,343.32,295.22,335.35,285,326c-10.19,7.72-21.45,6.6-32.79,3.32C246.65,327.71,241.26,325.51,235.78,323.57Zm50.25-20-.94-.49c.07.4.13.79.19,1.19L292.14,327a127.68,127.68,0,0,0-3.69-21.23C288.23,304.9,286.86,304.3,286,303.56Zm7.22,4.31-1.95.63,7.39,23.17,1.92-.63C296.84,323.76,298.15,314.78,293.25,307.87Z"/><path class="cls-4" d="M422.28,319.81l-3.25-1c.22-2.87.44-5.74.69-9h-8l-2.38,0c-.17-.35-.35-.7-.52-1l-3-4.67a24.41,24.41,0,0,1,3,.16c28.62,5,50.33-9.74,52-33.72.07-1,2.36-2.64,3.6-2.63,5.15,0,10.3.56,15.44.91l2,2.93c-.86.88-2.33,1.67-2.5,2.67-1.4,8.44-2.56,16.91-3.8,25.38l-3.2.84c1.81-9.15,3.62-18.31,5.52-27.94l-7.08-.54c-1.51,9.74-2.94,19-4.4,28.45l5.41,1c-.3,1-.59,1.93-.89,2.89L459.7,303l-2.18,14.77-3.49,2c.13-2.44.07-4.91.43-7.32,1-6.92,2.19-13.82,3.3-20.73.25-.32.5-.65.17-.23.13-.5,0-.08-.08.34-1.74,3.15-4.33,6.12-5.06,9.5-1.74,8-2.6,16.25-3.81,24.39l-3.88,2.06q2.28-13.41,4.57-26.81c-3.18,1.74-7.09,3.95-7.73,6.88-1.42,6.39-1.24,13.15-1.57,19.77,0,.94.73,1.93,1.13,2.9-.24,1.35-.47,2.69-.71,4l-3,1.05-1.22-3.28q1.31-12.63,2.62-25.21c-6-.08-7,3.25-7.34,7.66s-1.38,8.66-2.11,13L427.38,326c.76-5.47,1.51-10.94,2.31-16.68l-6.86.73C422.63,313.57,422.46,316.69,422.28,319.81Zm38-19.75,1.31,1.08c.76-1.42,2-2.78,2.22-4.29,1.25-8.28,2.25-16.6,3.34-25h-2.68C463,281.42,461.61,290.74,460.23,300.06Z"/><path class="cls-2" d="M309.48,426.85c6.31,14.81,1.52,23.73-14.4,26.28a79.12,79.12,0,0,1-13.43.62,13.42,13.42,0,0,1-11.4-6.12c-3.12-4.5-7.15-8.54-9.41-13.42-5.79-12.49,2-25.1,15.89-26.69,0,.36,0,.72,0,1.09a4,4,0,0,0-.92.38c-3.66,2.79-7.75,5.18-10.87,8.48-6.28,6.65-3.74,15.54,5.08,19.22,12,5,25.21.15,34.72-12.87Zm-35.65,16-5.09-3.54c-.2.31-.4.62-.61.93q3.93,4.74,7.84,9.49l.79-.49-1-3.45,5.38,4.35a29.37,29.37,0,0,0-3.19-7.67C276.25,439.34,275,440.76,273.83,442.88Zm27.31,5c-1.56-3.75-3.12-7.49-4.79-11.48C294.18,439.31,295.68,443.56,301.14,447.89Zm-12.78,2.25c-2.68-2.93-3.79-7.39-8-8.81C282.54,444.73,282.84,450,288.36,450.14Zm17.69-6.37,1.52-.45q-1.87-6.15-3.76-12.31l-2.07.65Zm-16.52-3.83,6.36,9.7C295.16,442.15,293.21,439.21,289.53,439.94Zm-5.36,1.58,5.15,6.71,1.45-1.45C288.58,439.9,288.58,439.9,284.17,441.52Zm7.34,6.07-.91.67,1.48,1.62.64-.54Z"/><path class="cls-5" d="M178.75,558.72c-3-1-3.16-3.3-3.1-6,.54-24.26,9-45.72,23-65.18C210.7,471,216.5,452.4,215.58,432c-.3-6.75-1.84-13.44-2.81-20.16,1.95,7.13,4.87,14.15,5.67,21.4,2.33,21.33-2.73,41-15.53,58.44C188.22,511.63,180,533.91,178.75,558.72Z"/><path class="cls-3" d="M334.81,1.37C345,.86,355.24-.27,365.41.06c7.11.23,12.45,5,16.5,10.86,3,4.35,6,8.66,9.22,13.18,12.71-10.24,26.55-15.74,42.66-14.31l-2,3.74c-14.44.25-27.41,4.33-38.38,14.16-.81.72-3.92.24-4.78-.72a54.06,54.06,0,0,1-6.86-9.73C376.51,7.58,368.14,3.4,357.55,3.69c-8.6.24-17.19,1.24-25.78,1.9Z"/><path class="cls-3" d="M155.8,160.85l15.42-4c-.9-.67-2-1.53-3.12-2.34-12-8.73-17.42-20.23-14.36-35.07,3.5-17,11.62-30.88,27-39.88l1,3c-11.82,9.07-20.24,20.39-23.53,35.2-3.41,15.3.51,25.17,13.53,33.7,2.06,1.35,4.05,2.82,6.08,4.23l-2.09,4.46-18.92,3.75Z"/><path class="cls-2" d="M334.81,1.37l-3,4.22a38.16,38.16,0,0,0-22.66,16.72c-1.44,2.22-3,4.4-4.24,6.72-1.59,2.9-3.15,3.12-5.83,1a94.44,94.44,0,0,0-12.39-8.23c-9.85-5.37-19.87-5.94-29.73.17-4.07,2.52-8.08,5.14-12.12,7.72l-3-2C261.42,10,278.39,8.84,301.46,26.16,309.49,13.81,319,3.3,334.81,1.37Z"/><path class="cls-4" d="M241.78,27.73l3,2q-3.35,5-6.7,10.09c-12.55-8.91-30.43-3.66-37.12,11a37.91,37.91,0,0,0-2.51,22.86c.44,2.46.71,4.22-2.84,4.84-4.72.83-9.27,2.64-13.9,4l-1-3,12.87-6.25c-2.33-32.73,20.36-48.25,42.58-38.81Z"/><path class="cls-6" d="M112,628.1c8,.06,15.91.17,23.87.18,16.38,0,22.87-5.65,24.85-21.66,12.45-2,15.61-5,16.39-15.68,3.43,3.62,4.34,7.85,2.44,12.4-3.37,8-10.83,6.17-17.31,6.58,4.23,10.79-2.77,21.55-14.28,21.9-8.81.27-17.66.38-26.45-.13C118.25,631.51,115.14,629.36,112,628.1Z"/><path class="cls-2" d="M347.85,353c8.68-7.48,18-12.55,30.22-11,12.65,1.65,21.45,9.13,23.63,21.85.56,3.26.61,6.6.89,9.9-5.23-1.31-5.2,3.27-6.79,6.05l-4.17,1.05c1.62-4.14,3.82-8.15,4.73-12.44,2.13-10-2.69-18.48-11.95-21.13-11-3.12-21.58-3.17-30.79,5a40.9,40.9,0,0,1-3.62,2.59Z"/><path class="cls-2" d="M356.82,417.77a16.35,16.35,0,0,1-11.64-8.41c-5.09-9.09-10-18.25-11.33-28.86s3.36-18.19,10.87-24.71l2.11,2.12c-1.57,1.92-3.26,3.74-4.68,5.76-8.34,11.86-6.07,21.35,6.7,28.29,1.17.63,2.47,1,3.55,1.77.53.36.71,1.24,1,1.88l-5.31-.35c1.38,3.35,2.61,6.32,3.83,9.3-1.06-.36-2.73-.41-3.08-1.12-1.24-2.49-1.64-5.45-3.1-7.77s-3.86-4.19-5.84-6.25l-1.19,1.22c1.89,3.62,3.62,7.34,5.71,10.85,1.79,3,4,5.81,6,8.69l1,.32-.41-.93c.32-1.49.65-3,1-4.48l5.75,10Z"/><path class="cls-7" d="M470.87,304.53c.3-1,.59-1.93.89-2.89.19-.33.37-.67.55-1l3.2-.84,2.72,1.85c.62-1,1.66-1.87,1.8-2.9.82-5.88,1.57-11.78,2-17.7a82.73,82.73,0,0,0-.26-9.3l-2-2.93,3-.81,2.25,2.91c-.47,9.81-.94,19.62-1.4,29.28,3.88-.25,4.7-3.1,5.09-6.76.53-4.91,1.59-9.77,2.42-14.65l2.4,1q-1.15,7.77-2.29,15.54c-.05.37-.11.74-.17,1.11L492,296c1.07-1.24,2.58-2.33,3.09-3.77.7-2,.65-4.24.92-6.38l2.75,0-.76,4.48.73,1,3-1.83,1.18,2.4C494.09,300.81,484.07,306.68,470.87,304.53Z"/><path class="cls-7" d="M356.82,417.77l1-2.69,5,.82,0-.12.48,1,.74-.94,1.15-1.59c1,1,2,2.91,2.95,2.85,4.51-.31,9-1.13,13.11-1.72-1-7.17-1.86-13.25-2.71-19.33l1.15-.14,5.13,16.8,1.35.54c.57-1.36,1.73-2.77,1.62-4.07-.4-4.79-1.23-9.54-1.89-14.3l2.35.84,3.33,13.14,1.59.07q1-3,1.9-6.07l4.64,2C391,417.94,370.9,424,356.82,417.77Z"/><path class="cls-3" d="M446.93,12.08c20.74,7.43,34.29,21.76,41.08,42.63l-4.86-3c-7.47-15.45-18-27.85-34.32-34.5Q447.89,14.65,446.93,12.08Z"/><path class="cls-8" d="M155.8,160.85l1,3c-8.46,4.24-16.32,9.5-19.69,18.69-3,8.15-4.63,16.78-6.87,25.2l-3.21,1C126.16,188.34,136.3,166.92,155.8,160.85Z"/><path class="cls-9" d="M74.71,338.56c-.53.61-1.13,1.95-2,2.14-1.09.24-3.11-.06-3.49-.78q-7.8-14.67-15.09-29.61c-.38-.76.73-3.05,1.65-3.43s3.27.25,3.72,1.11c5.12,9.64,10,19.41,14.91,29.16A7.36,7.36,0,0,1,74.71,338.56Z"/><path class="cls-1" d="M185.09,342.37c-.88-2.51-2.4-4.59-1.87-5.69,4.58-9.6,9.45-19.07,14.49-28.44.5-.94,2.7-1,4.11-1.44.37,1.44,1.47,3.23,1,4.25-4.52,9.44-9.29,18.77-14.09,28.08C188.23,340,187.11,340.59,185.09,342.37Z"/><path class="cls-1" d="M131.78,314.43c0,4.82.27,9.67-.15,14.45-.14,1.65-2,3.15-3.07,4.72-1-1.47-2.75-2.92-2.79-4.41q-.37-14.7,0-29.43c0-1.48,1.8-2.92,2.76-4.39,1.08,1.53,3,3,3.1,4.6C132,304.76,131.78,309.6,131.78,314.43Z"/><path class="cls-1" d="M399.66,404.82l-4.64-2c-.74-3-1.37-6-2.24-9-.63-2.12-1.58-4.15-2.39-6.22l2.24-2.74,3.13,2.81V380.8l4,3.68v-3.82c.49-2-1.23-5.31,3.07-4.83-.16,7.73-.15,15.47-.6,23.18C402.08,401,400.54,402.88,399.66,404.82Zm.48-9.51-1.33-.77c-.56,1.17-1.13,2.33-1.63,3.52a8.08,8.08,0,0,0,1.14.57C399,397.55,399.55,396.42,400.14,395.31Z"/><path class="cls-9" d="M224.23,373.39c-.66-.57-2-1.17-2.17-2-.21-1.08.13-2.9.91-3.45,6.37-4.46,12.84-8.78,19.44-12.89.86-.53,3.18,0,3.83.84s.4,3.31-.33,3.83c-6.5,4.56-13.18,8.86-19.83,13.2A7.84,7.84,0,0,1,224.23,373.39Z"/><path class="cls-9" d="M36.63,371.41c-2.35.56-4.59,1.87-5.67,1.23-6.54-3.89-12.88-8.13-19.09-12.54-.89-.63-1.19-3-.81-4.2.21-.66,2.92-1.39,3.75-.87,6.62,4.08,13.08,8.43,19.52,12.79C35.06,368.31,35.37,369.4,36.63,371.41Z"/><path class="cls-10" d="M319.84,345.54l1-2.76,2.31-.2c-.9-2.88-1.75-5.55-2.57-8.24s-1.67-5.7-2.5-8.55l3.26.89c1.48,4.56,3.11,9.09,4.37,13.71.87,3.19,2.57,3.24,5,2.24-.7-2.73-1.34-5.26-2-7.79l2.16-1c.84,2.08,2,4.1,2.42,6.26.54,2.9,2,3.34,4.42,2.58l1.09,3.18Z"/><path class="cls-9" d="M239,418.24l-3.3-2.74c1.26-1.22,2.34-3.17,3.8-3.53a81.76,81.76,0,0,1,13.3-2.06c1.38-.1,2.88,1.38,4.32,2.13-1.17,1.28-2.14,3.33-3.54,3.69C249.25,416.84,244.75,417.31,239,418.24Z"/><path class="cls-9" d="M18.58,418.26c-6-1-10.8-1.52-15.47-2.58C1.9,415.4,1,413.59,0,412.48c1.32-.92,2.71-2.68,4-2.59A94.84,94.84,0,0,1,18.16,412c1.36.31,2.38,2.15,3.56,3.29Z"/><path class="cls-8" d="M309.48,426.85l-4.7-3c2.25-10.47-.71-15-10.59-16.19-1.47-.18-2.93-.48-4.39-.73l-2-2.91c11.66-1.05,19.75,3.75,20.94,12.57C309.21,420,309.25,423.42,309.48,426.85Z"/><path class="cls-11" d="M176.66,587.81l-2.45-4.3c6.3-3.23,9.85-7.93,9.84-14.9C190.86,576.3,187.38,585.34,176.66,587.81Z"/><path class="cls-10" d="M502.88,291.83l-1.18-2.4c1.34-3,3.25-5.91,3.9-9.07,1-4.77,1.1-9.72,1.59-14.59l4.16-2c-1.22,7.68-2.17,15.42-3.82,23C507.11,288.69,504.49,290.15,502.88,291.83Z"/><path class="cls-10" d="M454,319.79l3.49-2c-1.15,3.1-1.44,7.17-3.63,9.08-3.74,3.28-8.67,5.21-13.1,7.71.24-1.35.47-2.69.71-4l0,0,2.18-1.13,1.38-1.64,3.88-2.06Z"/><path class="cls-10" d="M446.93,12.08q1,2.56,1.9,5.13l-17-3.68,2-3.74Z"/><path class="cls-10" d="M483.15,51.71l4.86,3,1.77,13-3.66,2Z"/><path class="cls-10" d="M287.82,404l2,2.91-13,1.71c0-.37,0-.73,0-1.09Z"/><path class="cls-12" d="M402.79,375.83c-4.3-.48-2.58,2.88-3.07,4.83l-3.92-.84h0c1.59-2.78,1.56-7.36,6.79-6.05Z"/><path class="cls-8" d="M171.75,275.33l-2.16,4L166.71,278c.06-.87.13-1.74.2-2.61l2-.63,2.11-.1Z"/><path class="cls-4" d="M346.83,357.91l-2.11-2.12,3.13-2.8,2.15,1.92Z"/><path class="cls-10" d="M436.55,332.35l1.22,3.28-2,1c-.34-1.18-.67-2.36-1-3.53Z"/><path class="cls-5" d="M212.8,411.87c-.36-1.08-.73-2.16-1.1-3.25C212.07,409.7,212.44,410.79,212.8,411.87Z"/><path class="cls-8" d="M200.7,279.54c.25-.46.49-.92.71-1.39C201.15,278.61,200.93,279.08,200.7,279.54Z"/><path class="cls-13" d="M124.81,555H90.89c-1.46-8.92-2.85-17.84-4.47-26.72-.25-1.37-1.59-2.54-2.42-3.79-4.3-14.91-10.84-28.69-20.5-40.93a62.51,62.51,0,0,1-11.9-24.46c.07-1.64.21-3.27.19-4.9,0-6.81-.72-13.66-.14-20.41,4.2-49.21,53.11-84.57,101.17-73.39.62.14,1.39-.36,2.09-.56,28.07,9,45,28.49,52.15,56.5,6.06,23.89,1.72,46.36-12.67,66.46-12.64,17.65-21.25,36.84-24.1,58.44-.58,4.43-.76,8.91-1.15,13.75H132.55c5.41-22.29,11.07-44.52,16.1-66.89,1.69-7.55,6.15-11.16,12.91-13.31,1.24-.4,2.08-2.06,3.11-3.14-1.33-.94-2.9-2.89-3.93-2.63a26.9,26.9,0,0,0-9,3.74c-5.48,3.8-7.78,4.07-12.89.18-7.58-5.78-13.07-5.76-20.75.08-4.88,3.71-7.39,3.56-12.53,0a23.56,23.56,0,0,0-7.9-3.88c-1.55-.36-3.56,1.29-5.36,2,1.32,1.27,2.42,3,4,3.73,4.59,2.24,10,4,11.33,9.39C113.6,507.8,119.13,531.43,124.81,555ZM77,423.78c13.19-.12,29.72-19.93,27.55-33a9.7,9.7,0,0,0-11-8.45C80.71,383.76,66.1,401,66.88,413.81,67.26,420.05,71.12,423.84,77,423.78Z"/><path class="cls-14" d="M124.81,555c-5.68-23.58-11.21-47.21-17.15-70.73-1.36-5.38-6.74-7.15-11.33-9.39-1.57-.76-2.67-2.46-4-3.73,1.8-.75,3.81-2.4,5.36-2a23.56,23.56,0,0,1,7.9,3.88c5.14,3.59,7.65,3.74,12.53,0,7.68-5.84,13.17-5.86,20.75-.08,5.11,3.89,7.41,3.62,12.89-.18a26.9,26.9,0,0,1,9-3.74c1-.26,2.6,1.69,3.93,2.63-1,1.08-1.87,2.74-3.11,3.14-6.76,2.15-11.22,5.76-12.91,13.31-5,22.37-10.69,44.6-16.1,66.89Zm18.82-72c-3.58-2.25-6.82-4.17-9.94-6.27s-6.42-2.58-9.77-.41-6.57,4.3-10.07,6.6c4.68,19.17,9.42,38.63,14.17,58.08l1.38-.16C134.19,521.43,139,502,143.63,483Z"/><path class="cls-11" d="M176,564.77c4,7.29.75,13.11-7.39,13.13q-40.42.08-80.85-.06c-2,0-4-1.1-6-1.68a14.09,14.09,0,0,1,9.44-11.29Z"/><path class="cls-15" d="M170,588.8c2.09,7.9-.23,11.17-8.08,11.19q-33.48,0-66.94,0a30.72,30.72,0,0,1-5.69-1.1c.26-4.9,1.88-8.83,7.24-10.06Z"/><path class="cls-16" d="M154.91,359.85c-.7.2-1.47.7-2.09.56-48.06-11.18-97,24.18-101.17,73.39-.58,6.75.09,13.6.14,20.41,0,1.63-.12,3.26-.19,4.9C47.19,449.22,47,438.73,48,428.33c4.38-43.23,40.4-74.82,83.81-73.21C139.58,355.41,147.22,358.21,154.91,359.85Z"/><path class="cls-11" d="M153.72,606.61c.74,9.76-4,15.27-12.76,15.45-8.49.17-17,.33-25.45-.12-3.1-.16-6.88-1.31-9-3.39-2.24-2.25-3-6.08-4-9.34-.17-.55,1.65-2.47,2.57-2.48C121.21,606.57,137.31,606.61,153.72,606.61Z"/><path class="cls-17" d="M170,588.8H96.53l-8.17-2.56c2-.49,4.08-1.4,6.12-1.41,22.66-.1,45.31-.06,68-.06C165.69,584.75,168.9,584.8,170,588.8Z"/><path class="cls-13" d="M176,564.77l-84.8.1c-.06-1-.12-1.89-.19-2.83,26.37,0,52.73-.16,79.09,0C172.09,562,174.06,563.81,176,564.77Z"/><path class="cls-18" d="M91,562c.07.94.13,1.88.19,2.83a14.1,14.1,0,0,0-9.43,11.29c-3.53-2.52-3.69-6-2.46-9.65,1.31-3.82,4.43-5,8.27-4.63C88.74,562,89.89,562,91,562Z"/><path class="cls-19" d="M84,524.5c.83,1.25,2.17,2.42,2.42,3.79,1.62,8.88,3,17.8,4.47,26.72-2.56.93-2.9-.32-3.16-2.61C86.63,543.08,85.27,533.79,84,524.5Z"/><path class="cls-20" d="M88.36,586.23l8.17,2.56c-5.36,1.23-7,5.16-7.24,10.06C84.73,595.25,84.43,591.08,88.36,586.23Z"/><path class="cls-21" d="M483.15,51.71l3,18.05c-.65,7.1-1.46,14.18-1.86,21.29-.17,2.93,1.36,4.47,4.83,4.89,22.69,2.72,36.94,18.36,37.5,41.14A38.63,38.63,0,0,1,520,159.23c-5.8,8.91-11.89,17.63-18,26.34-2.55,3.64-2.43,5.61,1.76,8.46,8.81,6,12.76,15.08,12.93,25.68.34,20.8-13.69,40.72-33.88,48.3l-3,.81c-5.14-.35-10.29-.89-15.44-.91-1.24,0-3.53,1.62-3.6,2.63-1.68,24-23.39,38.68-52,33.72a24.41,24.41,0,0,0-3-.16c-8.38-4.26-16.72-8.59-25.18-12.68a4.91,4.91,0,0,0-4.3.32c-5,3.88-9.69,8.08-14.49,12.16-6.91,2.63-13.63,6.13-20.78,7.72-14.9,3.3-29.24-.49-43.27-5.44-5.49-4.46-11.2-8.67-16.39-13.46-7.12-6.57-6.94-6.75-15.6-2.45-21.76,2.79-40.57-4.36-57.35-17.56-3.23-2.54-5.47-6.59-7.57-10.28-3.08-5.43-3-11.07,1.4-17-1.77,0-3-.39-3.72.06-8.23,5.31-17.33,5.58-26.49,4.19a103,103,0,0,1-18.83-4.54c-13.9-4.92-21.41-15.09-22.57-29.85-.2-2.48-.28-5-.42-7.47,2.24-8.42,3.88-17.05,6.87-25.2,3.37-9.19,11.23-14.45,19.69-18.69l18.92-3.75,5.86.75c.29-.52.58-1,.86-1.56l-4.63-3.65c-2-1.41-4-2.88-6.08-4.23-13-8.53-16.94-18.4-13.53-33.7,3.29-14.81,11.71-26.13,23.53-35.2,4.63-1.39,9.18-3.2,13.9-4,3.55-.62,3.28-2.38,2.84-4.84A37.91,37.91,0,0,1,201,50.82c6.69-14.65,24.57-19.9,37.12-11q3.35-5.05,6.7-10.09c4-2.58,8-5.2,12.12-7.72,9.86-6.11,19.88-5.54,29.73-.17A94.44,94.44,0,0,1,299,30.08c2.68,2.07,4.24,1.85,5.83-1,1.27-2.32,2.8-4.5,4.24-6.72A38.16,38.16,0,0,1,331.77,5.59c8.59-.66,17.18-1.66,25.78-1.9,10.59-.29,19,3.89,24.27,13.55A54.06,54.06,0,0,0,388.68,27c.86,1,4,1.44,4.78.72,11-9.83,23.94-13.91,38.38-14.16l17,3.68C465.15,23.86,475.68,36.26,483.15,51.71Z"/><path class="cls-19" d="M271.17,313.85l2.52,12.58c-9.89,2.11-9.77,2.07-12.83-7.48-1.75-5.47-4-10.78-6-16.17-.91-2.42-1.81-4.85-3-8.07l5.7,1.19a80,80,0,0,0,10.89,30l2-.72-11.55-29.32,4.92-1.46L270.4,293c3.11,10.22,6.32,20.71,9.37,31.24.09.29-1.46,1.05-2.65,1.86-1.55-4.29-3-8.29-4.42-12.29q-2.81-8.59-5.6-17.18l-1.62.57Z"/><path class="cls-20" d="M252.68,303.84,259.79,326c-.36.38-.73.76-1.09,1.15-1.47-1.23-3.62-2.18-4.26-3.74-1.95-4.73-3.32-9.7-4.91-14.58l-4.72-14.94,4.23.91C250.35,298.06,251.51,301,252.68,303.84Z"/><path class="cls-19" d="M229.48,317.12c-4.36-.42-4.8-3.69-5.85-7.13-2.77-9-6.12-17.84-9.24-26.74l1.74-1c1.28,1.82,3,3.48,3.75,5.49,3.72,9.42,7.19,18.94,10.74,28.42Z"/><path class="cls-20" d="M175.82,254.26c1.26.89,2.6,1.68,3.77,2.68,1.79,1.51,3.45,3.16,5.17,4.76l-.08-.14a13,13,0,0,0,.56,3.65c2.24,4.7,4.65,9.32,7.36,14.67-9.26,0-8.51-8.39-12.42-12.24q-2.19-6.7-4.37-13.39Z"/><path class="cls-22" d="M247.26,309c1,5.1,2,10.2,3.18,16.08-5.21-2.46-3.3-8.37-6.29-11.35q-4-10.4-7.93-20.78l2-1.21c1.29,1.63,2.93,3.1,3.82,4.93C244,300.64,245.53,304.84,247.26,309Z"/><path class="cls-19" d="M242,313.77l2,7.82-.71.76-4.67-3.54L229.38,290c3.87.05,4.86,1.62,5.72,4.91C236.79,301.35,239.61,307.5,242,313.77Z"/><path class="cls-22" d="M184.68,261.56l.08.14c-1-2.26-2-4.51-3.46-7.89l7.25,1.07,1.06,2q4.24,11.36,8.51,22.71l-1.35.92a26.66,26.66,0,0,1-2.25-3.19c-2.35-4.56-4.52-9.21-7-13.72C187.06,262.65,185.66,262.22,184.68,261.56Z"/><path class="cls-7" d="M258.87,295.81l11.55,29.32-2,.72a80,80,0,0,1-10.89-30Z"/><path class="cls-22" d="M175.82,254.26h0c-.66,1.55-2.18,3.33-1.83,4.61.85,3.09,2.57,5.95,3.94,8.9l3.69,10.54-.67.78c-1.75-2.09-3.5-4.19-5.26-6.28l-1.77-3.31c-1.69-5.1-3.39-10.21-5.28-15.9Z"/><path class="cls-22" d="M169,274.79l-2,.63c-1.23-2.34-2.42-4.69-3.7-7-3.37-6.07-6.78-12.12-10.35-18.49,3.83-.09,5.74,1.28,7.12,5C162.5,261.72,165.91,268.19,169,274.79Z"/><path class="cls-23" d="M171.75,275.33l-.69-.64q-4.8-10.87-9.61-21.76l1.14-1.08c1.16,1.19,2.82,2.17,3.41,3.6,2.21,5.35,4.08,10.85,6.08,16.29l.87,1,0,1.83-.74.85Z"/><path class="cls-22" d="M190.41,254.79l5-4.82c.92,6.79,1.62,12.08,2.33,17.37l-.55.18-6.3-12A.82.82,0,0,0,190.41,254.79Z"/><path class="cls-24" d="M145.25,247.05c4.1.67,9.85,9.43,10.47,16.18Z"/><path class="cls-7" d="M177.92,267.76c-1.37-2.95-3.09-5.81-3.94-8.9-.35-1.28,1.17-3.06,1.83-4.61q2.19,6.69,4.37,13.39Z"/><path class="cls-23" d="M228.56,302.2c-2-5-4-9.95-6.1-15.05,4-.18,5,1.7,5.27,5,.19,2.91,1.27,5.76,2,8.63Z"/><path class="cls-23" d="M213,290.7c-1.44-3.76-2.87-7.52-4.36-11.42C212.91,280,213.39,281.16,213,290.7Z"/><path class="cls-19" d="M236.31,318.8l-.48,1.41-6.35-3.09,1.14-.93c.72-.17,2-.31,2.06-.52a10.49,10.49,0,0,1,.57-4.24Z"/><path class="cls-8" d="M173,272.76l-.87-1,1.83-2.25,1.77,3.31Z"/><path class="cls-8" d="M190.41,254.79a.82.82,0,0,1,.46.77l-1.26,1.29-1.06-2Z"/><path class="cls-19" d="M228.56,302.2l1.13-1.38c.16,1,.31,2,.47,3.06Z"/><path class="cls-8" d="M174.46,277.18l.35-.14.1.53a.87.87,0,0,1-.37-.08C174.47,277.44,174.48,277.29,174.46,277.18Z"/><path class="cls-8" d="M198,269c0,.13.14.34.1.37a1.46,1.46,0,0,1-.43.15c0-.13-.13-.34-.09-.37A1.4,1.4,0,0,1,198,269Z"/><path class="cls-23" d="M173,274.59l.26,1.34-1-.49Z"/><path class="cls-25" d="M491.19,278.79c-.83,4.88-1.89,9.74-2.42,14.65-.39,3.66-1.21,6.51-5.09,6.76.46-9.66.93-19.47,1.4-29.28L492.6,268C492.12,271.68,491.66,275.23,491.19,278.79Z"/><path class="cls-25" d="M507.19,265.77c-.49,4.87-.6,9.82-1.59,14.59-.65,3.16-2.56,6.06-3.9,9.07l-3,1.83c-.24-.34-.49-.67-.73-1l.76-4.48,2.73-12c.59-3.76,1-7.55,1.8-11.27a44.48,44.48,0,0,1,2.14-6l1.79.3Z"/><path class="cls-19" d="M496,285.81c-.27,2.14-.22,4.39-.92,6.38-.51,1.44-2,2.53-3.09,3.77-.21-.22-.44-.43-.67-.63q1.14-7.77,2.29-15.54c.41-2.63,1.34-5.3,1.11-7.87-.45-4.88,1.55-7.83,6.49-9.85l-2.78,12.68Z"/><path class="cls-24" d="M519.26,203.47c-.51-10.23-1.12-20.45-1.45-30.69-.06-1.91,1.06-3.87,2.62-5.56v36.25Z"/><path class="cls-10" d="M496,285.81l2.43-11.06,3-1-2.73,12Z"/><path class="cls-24" d="M511.84,178.76c.36,6.27.67,11.78,1,18C509.25,191.41,508.78,182.8,511.84,178.76Z"/><path class="cls-8" d="M297.78,306.18c14,4.95,28.37,8.74,43.27,5.44,7.15-1.59,13.87-5.09,20.78-7.72L360,309.26l-5,3.54-1.2,0c-3.14.21-4.9,1.53-4.05,5h-1.83l-6.43-2.74,2.15,8.76L341.23,325c-2.3-2.06.22-7.11-4.94-8.33.69,4.89,1.26,9,1.84,13.06l-2.35.12c-1-4.11-2-8.22-3-12.42h-5.54l3.61,16.4-2.16,1c-1.58-5.86-3.15-11.73-4.82-18l-5.41-.64,2.82,10.44-3.26-.89a58.56,58.56,0,0,1-2.11-5.52c-1.42-5.24-3.34-6.41-9.37-5.46h-1.68l-3.11-2.93Z"/><path class="cls-26" d="M411.72,309.78h8c-.25,3.29-.47,6.16-.69,9V334.6h-7.31Z"/><path class="cls-25" d="M436.55,332.35l-1.76.79-4.76.57c-.11-2.09-.21-4-.31-5.92.73-4.33,1.78-8.63,2.11-13s1.32-7.74,7.34-7.66Q437.87,319.71,436.55,332.35Z"/><path class="cls-26" d="M377.93,296.06c5.2,1.47,6.13,4,6,7.84-.28,8-.08,15.92-.08,24.1-4.64-.87-6.7-2.54-6.12-7.89C378.55,312.38,377.93,304.5,377.93,296.06Z"/><path class="cls-25" d="M393.62,304.56l6.72,2.46c-.49,8.39-1,16.76-1.49,25.61l-5.23-.88Z"/><path class="cls-26" d="M408.82,308.77c.17.34.35.69.52,1-.41,7.92-.83,15.84-1.26,24.08l-5.19-.32V308Z"/><path class="cls-20" d="M369.4,302.67c3.64,10.26,1.89,22.41-3.52,26.71-.71-7.08-1.79-14-1.83-20.84C364,306.75,367.24,304.93,369.4,302.67Z"/><path class="cls-20" d="M422.28,319.81c.18-3.12.35-6.24.55-9.73l6.86-.73c-.8,5.74-1.55,11.21-2.31,16.68-.42,2.57-.85,5.15-1.37,8.29l-3.73.54Z"/><path class="cls-19" d="M330.87,333.8l-3.61-16.4h5.54c1,4.2,2,8.31,3,12.42q1,6.4,1.93,12.82c-2.41.76-3.88.32-4.42-2.58C332.89,337.9,331.71,335.88,330.87,333.8Z"/><path class="cls-19" d="M343.57,323.82l-2.15-8.76,6.43,2.74c.94,7.14,1.88,14.28,2.86,21.7l-3.9,1.31C345.7,335,344.63,329.4,343.57,323.82Z"/><path class="cls-25" d="M354.93,312.8l5-3.54c.65.51,1.83,1,1.87,1.55.44,6.77.8,13.55.94,20.33,0,1.11-1.07,2.25-2.18,4.44C358.47,327.1,356.7,320,354.93,312.8Z"/><path class="cls-20" d="M349.68,317.81c-.85-3.45.91-4.77,4.05-5,1.19,7.64,2.39,15.28,3.68,23.54l-3.23,1.93C352.62,331.21,351.15,324.51,349.68,317.81Z"/><path class="cls-22" d="M387.93,301.06c1,1.51,2.92,3,3,4.54.3,8.24.14,16.5.14,24.75l-1.76.63c-.7-1.22-2-2.43-2-3.67-.18-8.41-.1-16.82-.1-25.24C387.44,301.74,387.69,301.4,387.93,301.06Z"/><path class="cls-22" d="M338.13,329.7c-.58-4.08-1.15-8.17-1.84-13.06,5.16,1.22,2.64,6.27,4.94,8.33.75,5.38,1.5,10.75,2.48,17.81-1.6-1.54-2.8-2.15-3.08-3.06C339.63,336.43,338.94,333.05,338.13,329.7Z"/><path class="cls-26" d="M306.56,314.81c6-.95,7.95.22,9.37,5.46a58.56,58.56,0,0,0,2.11,5.52c.83,2.85,1.65,5.71,2.5,8.55s1.67,5.36,2.57,8.24l-2.31.2c-2-2-4.75-3.57-5.8-5.95C311.83,329.65,309.33,322.17,306.56,314.81Z"/><path class="cls-20" d="M301.77,311.88l3.11,2.93c2.16,7.91,4.32,15.82,6.94,25.39-2.59-2.43-5.18-3.78-6-5.84-2.89-7.18-5.17-14.6-7.88-22.48Z"/><path class="cls-23" d="M293.25,307.87c4.9,6.91,3.59,15.89,7.36,23.17l-1.92.63L291.3,308.5Z"/><path class="cls-24" d="M286,303.56c.83.74,2.2,1.34,2.42,2.23A127.68,127.68,0,0,1,292.14,327l-6.86-22.76Z"/><path class="cls-12" d="M271.17,313.85l-5.69-16.62,1.62-.57q2.79,8.58,5.6,17.18Z"/><path class="cls-24" d="M285.28,304.26l-.19-1.19.94.49Z"/><path class="cls-19" d="M244,321.59l.57.73-1.28,0Z"/><path class="cls-26" d="M472.31,300.64c-.18.33-.36.67-.55,1l-5.41-1c1.46-9.44,2.89-18.71,4.4-28.45l7.08.54C475.93,282.33,474.12,291.49,472.31,300.64Z"/><path class="cls-25" d="M445.1,327.8l-1.38,1.64-2.18,1.13,0,0c-.4-1-1.17-2-1.13-2.9.33-6.62.15-13.38,1.57-19.77.64-2.93,4.55-5.14,7.73-6.88Q447.39,314.4,445.1,327.8Z"/><path class="cls-22" d="M454,319.79l-5,5.95c1.21-8.14,2.07-16.36,3.81-24.39.73-3.38,3.32-6.35,5.06-9.5l-.09-.11c-1.11,6.91-2.29,13.81-3.3,20.73C454.1,314.88,454.16,317.35,454,319.79Z"/><path class="cls-22" d="M481.81,271.75a82.73,82.73,0,0,1,.26,9.3c-.47,5.92-1.22,11.82-2,17.7-.14,1-1.18,1.94-1.8,2.9l-2.72-1.85c1.24-8.47,2.4-16.94,3.8-25.38C479.48,273.42,481,272.63,481.81,271.75Z"/><path class="cls-23" d="M460.23,300.06c1.38-9.32,2.77-18.64,4.19-28.16h2.68c-1.09,8.35-2.09,16.67-3.34,25-.22,1.51-1.46,2.87-2.22,4.29Z"/><path class="cls-22" d="M457.85,291.85c.11-.42.21-.84.08-.34.33-.42.08-.09-.17.23Z"/><path class="cls-18" d="M276.77,408.61l13-1.71c1.46.25,2.92.55,4.39.73,9.88,1.21,12.84,5.72,10.59,16.19-9.51,13-22.68,17.9-34.72,12.87-8.82-3.68-11.36-12.57-5.08-19.22,3.12-3.3,7.21-5.69,10.87-8.48A4,4,0,0,1,276.77,408.61Z"/><path class="cls-24" d="M301.14,447.89c-5.46-4.33-7-8.58-4.79-11.48C298,440.4,299.58,444.14,301.14,447.89Z"/><path class="cls-24" d="M288.36,450.14c-5.52-.16-5.82-5.41-8-8.81C284.57,442.75,285.68,447.21,288.36,450.14Z"/><path class="cls-24" d="M306.05,443.77l-4.31-12.11,2.07-.65q1.88,6.17,3.76,12.31Z"/><path class="cls-23" d="M289.53,439.94c3.68-.73,5.63,2.21,6.36,9.7Z"/><path class="cls-23" d="M273.82,442.88c1.19-2.12,2.43-3.54,4.12-.38a29.37,29.37,0,0,1,3.19,7.67l-5.38-4.35.08.05-2.05-3.08Z"/><path class="cls-24" d="M275.75,445.82l1,3.45-.79.49q-3.92-4.75-7.84-9.49c.21-.31.41-.62.61-.93l5.08,3.54,0-.09,2.05,3.08Z"/><path class="cls-23" d="M284.17,441.52c4.41-1.62,4.41-1.62,6.6,5.26l-1.45,1.45Z"/><path class="cls-23" d="M291.51,447.59l1.21,1.75-.64.54-1.48-1.62Z"/><path class="cls-10" d="M177.81,155.68l4.63,3.65c-.28.52-.57,1-.86,1.56l-5.86-.75Z"/><path class="cls-27" d="M346.83,357.91l3.17-3a40.9,40.9,0,0,0,3.62-2.59c9.21-8.19,19.84-8.14,30.79-5,9.26,2.65,14.08,11.11,11.95,21.13-.91,4.29-3.11,8.3-4.73,12.44l-9.84,8.92c-8.5,3.49-17.13,6.28-26.54,4.81-.25,0-.63.76-.95,1.18a1.24,1.24,0,0,0-.86-.17c-.33-.64-.51-1.52-1-1.88-1.08-.73-2.38-1.14-3.55-1.77-12.77-6.94-15-16.43-6.7-28.29C343.57,361.65,345.26,359.83,346.83,357.91Z"/><path class="cls-12" d="M381.79,389.79l9.84-8.92,4.17-1.05h0c0,.33,0,.65,0,1v6.85l-3.13-2.81-2.24,2.74-3.5,4.34c.3.87.81,2.31,1.31,3.75l-2.35-.84-4.09-1.14Z"/><path class="cls-25" d="M353.44,395.61a1.24,1.24,0,0,1,.86.17c4.63,1.54,5,5.57,5.73,9.53a60.89,60.89,0,0,0,1.87,6.51c.3,1.36.59,2.72.89,4.08l-5-.82-5.75-10a2.32,2.32,0,0,1-.07-.53c-1.22-3-2.45-5.95-3.83-9.3Z"/><path class="cls-22" d="M352,404.56a2.32,2.32,0,0,0,.07.53c-.32,1.49-.65,3-1,4.48l-.61.61c-2-2.88-4.2-5.67-6-8.69-2.09-3.51-3.82-7.23-5.71-10.85l1.19-1.22c2,2.06,4.35,3.88,5.84,6.25s1.86,5.28,3.1,7.77C349.23,404.15,350.9,404.2,352,404.56Z"/><path class="cls-22" d="M351.06,409.57l.41.93-1-.32Z"/><path class="cls-19" d="M492,296l-.84.48c.06-.37.12-.74.17-1.11C491.53,295.53,491.76,295.74,492,296Z"/><path class="cls-10" d="M498,290.26c.24.33.49.66.73,1Z"/><path class="cls-26" d="M378.49,396c.85,6.08,1.7,12.16,2.71,19.33-4.12.59-8.6,1.41-13.11,1.72-.92.06-2-1.85-2.95-2.85l-1.53-4-2.23-12.12,8.51.71c.32,1.34.65,2.67,1,4,.51,8,1.58,10.2,5.27,10.6-1.18-3.55-2.35-7.05-3.51-10.55l-1-5.08Z"/><path class="cls-2" d="M369.89,398.82l-8.51-.71c.81,4.41,1.52,8.27,2.22,12.12l-1.7,1.59a60.89,60.89,0,0,1-1.87-6.51c-.7-4-1.1-8-5.73-9.53.32-.42.7-1.22.95-1.18,9.41,1.47,18-1.32,26.54-4.81l0,3.9-2.12,2.17-1.15.14-6.86,1.8Z"/><path class="cls-19" d="M388.2,395.67c-.5-1.44-1-2.88-1.31-3.75l3.5-4.34c.81,2.07,1.76,4.1,2.39,6.22.87,3,1.5,6,2.24,9q-.94,3-1.9,6.07l-1.59-.07Z"/><path class="cls-20" d="M379.64,395.86l2.12-2.17,4.09,1.14c.66,4.76,1.49,9.51,1.89,14.3.11,1.3-1.05,2.71-1.62,4.07l-1.35-.54Z"/><path class="cls-4" d="M361.9,411.82l1.7-1.59c.52,1.33,1,2.65,1.54,4L364,415.79h-1.22l0,.12C362.49,414.54,362.2,413.18,361.9,411.82Z"/><path class="cls-25" d="M362.77,415.78H364l-.74.94Z"/><path class="cls-8" d="M400.14,395.31c-.59,1.11-1.17,2.24-1.82,3.32a8.08,8.08,0,0,1-1.14-.57c.5-1.19,1.07-2.35,1.63-3.52Z"/><path class="cls-8" d="M395.76,380.8c0-.33,0-.65,0-1l3.92.84v3.82Z"/><path class="cls-25" d="M321.3,326.68l-2.82-10.44,5.41.64c1.67,6.23,3.24,12.1,4.82,18,.64,2.53,1.28,5.06,2,7.79-2.45,1-4.15.95-5-2.24C324.41,335.77,322.78,331.24,321.3,326.68Z"/><path class="cls-4" d="M441.54,330.57l2.18-1.13Z"/><path class="cls-28" d="M77,423.78c-5.9.06-9.76-3.73-10.14-10C66.1,401,80.71,383.76,93.56,382.32a9.7,9.7,0,0,1,11,8.45C106.74,403.85,90.21,423.66,77,423.78Z"/><path class="cls-29" d="M143.63,483C139,502,134.19,521.43,129.4,540.88L128,541c-4.75-19.45-9.49-38.91-14.17-58.08,3.5-2.3,6.78-4.46,10.07-6.6s6.54-1.77,9.77.41S140.05,480.79,143.63,483Z"/><path class="cls-2" d="M275.83,445.87l-2.05-3.08Z"/><path class="cls-10" d="M372.62,402.88c1.16,3.5,2.33,7,3.51,10.55-3.69-.4-4.76-2.59-5.27-10.6Z"/><path class="cls-4" d="M372.62,402.88l-1.76-.05c-.32-1.34-.65-2.67-1-4l1.74-1Z"/></svg>
